<svg width="50" height="50" viewBox="0 0 14 15" fill="none" xmlns="http://www.w3.org/2000/svg">
<path d="M6.99333 0.833332C3.31333 0.833332 0.32666 3.82 0.32666 7.5C0.32666 11.18 3.31333 14.1667 6.99333 14.1667C10.6733 14.1667 13.66 11.18 13.66 7.5C13.66 3.82 10.6733 0.833332 6.99333 0.833332ZM9.39999 5.06C10.1133 5.06 10.6867 5.63333 10.6867 6.34667C10.6867 7.06 10.1133 7.63333 9.39999 7.63333C8.68666 7.63333 8.11333 7.06 8.11333 6.34667C8.10666 5.63333 8.68666 5.06 9.39999 5.06ZM5.39999 4.00667C6.26666 4.00667 6.97333 4.71333 6.97333 5.58C6.97333 6.44667 6.26666 7.15333 5.39999 7.15333C4.53333 7.15333 3.82666 6.44667 3.82666 5.58C3.82666 4.70667 4.52666 4.00667 5.39999 4.00667ZM5.39999 10.0933V12.5933C3.79999 12.0933 2.53333 10.86 1.97333 9.28667C2.67333 8.54 4.41999 8.16 5.39999 8.16C5.75333 8.16 6.19999 8.21333 6.66666 8.30667C5.57333 8.88667 5.39999 9.65333 5.39999 10.0933ZM6.99333 12.8333C6.81333 12.8333 6.63999 12.8267 6.46666 12.8067V10.0933C6.46666 9.14667 8.42666 8.67333 9.39999 8.67333C10.1133 8.67333 11.3467 8.93333 11.96 9.44C11.18 11.42 9.25333 12.8333 6.99333 12.8333Z" fill="#4C4C4C"/>
</svg>
